<?xml version="1.0" encoding="UTF-8"?>
<svg width="44px" height="44px" viewBox="0 0 44 44" version="1.1" xmlns="http://www.w3.org/2000/svg" xmlns:xlink="http://www.w3.org/1999/xlink">
    <!-- Generator: Sketch 54.1 (76490) - https://sketchapp.com -->
    <title>Sharrow</title>
    <desc>Created with Sketch.</desc>
    <g id="Symbols" stroke="none" stroke-width="1" fill="none" fill-rule="evenodd">
        <g id="logo/Sharrow" fill="#FFFFFF" fill-rule="nonzero">
            <g id="Sharrow">
                <path d="M4,4 L4,40 L40,40 L40,4 L4,4 Z M2,0 L42,0 C43.1045695,0 44,0.8954305 44,2 L44,42 C44,43.1045695 43.1045695,44 42,44 L2,44 C0.8954305,44 0,43.1045695 0,42 L0,2 C0,0.8954305 0.8954305,0 2,0 Z" id="Stroke-1"></path>
                <path d="M29,15 L12,15 C10.8954305,15 10,14.1045695 10,13 C10,11.8954305 10.8954305,11 12,11 L31,11 C32.1045695,11 33,11.8954305 33,13 L33,32 C33,33.1045695 32.1045695,34 31,34 C29.8954305,34 29,33.1045695 29,32 L29,15 Z" id="Stroke-2"></path>
                <path d="M27.5857864,13.5857864 C28.366835,12.8047379 29.633165,12.8047379 30.4142136,13.5857864 C31.1952621,14.366835 31.1952621,15.633165 30.4142136,16.4142136 L13.4142136,33.4142136 C12.633165,34.1952621 11.366835,34.1952621 10.5857864,33.4142136 C9.80473785,32.633165 9.80473785,31.366835 10.5857864,30.5857864 L27.5857864,13.5857864 Z" id="Stroke-3"></path>
            </g>
        </g>
    </g>
</svg>